<?xml version="1.0" encoding="utf-8"?>
<!-- Generator: Adobe Illustrator 16.0.4, SVG Export Plug-In . SVG Version: 6.00 Build 0)  -->
<!DOCTYPE svg PUBLIC "-//W3C//DTD SVG 1.1//EN" "http://www.w3.org/Graphics/SVG/1.1/DTD/svg11.dtd">
<svg version="1.1" id="Layer_1" xmlns="http://www.w3.org/2000/svg" xmlns:xlink="http://www.w3.org/1999/xlink" x="0px" y="0px"
	 width="148px" height="46px" viewBox="0 0 148 46" enable-background="new 0 0 148 46" xml:space="preserve">
<g>
	<path fill="#FFDD30" d="M25.595,17.743c-1.734-3.03-5.627-4.945-9.707-4.945C6.984,12.733,0,18.237,0,28.751
		c0,10.688,6.678,16.254,15.701,16.191c3.401-0.062,8.16-1.793,9.894-5.38l0.369,4.452h7.109V13.537H25.84L25.595,17.743z
		 M16.566,38.02c-5.005,0-9.027-3.462-9.027-9.269c0-5.816,4.022-9.218,9.027-9.218C28.437,19.533,28.437,38.02,16.566,38.02z"/>
	<g>
		<polygon fill="#FFDD30" points="43.518,13.537 43.518,10.325 43.518,0.804 36.035,0.804 36.035,44.015 43.518,44.015 
			43.518,21.579 43.518,20.154 		"/>
		<path fill="#FFDD30" d="M136.511,0.804v16.875c-1.792-3.152-6.799-4.881-10.017-4.881c-6.82,0-12.296,3.197-14.481,9.424
			c-2.029-6.396-7.352-9.611-14.63-9.611c-3.931,0-7.296,1.059-9.918,2.916c-1.698-1.614-4.648-2.793-7.726-2.793
			c-3.088,0-6.24,0.559-8.591,4.332l-0.556-3.528h-6.426H63.61h-8.406v-1.604c0-3.709,1.976-5.437,4.573-5.437
			c1.543,0,3.03,0.555,4.634,1.604l2.785-5.626C64.718,0.868,61.942,0,59.278,0C53.161,0,47.66,3.772,47.66,11.933v1.604h-2.612
			l-0.322,6.617h2.934v23.86h7.544v-23.86h8.406v23.86h7.539v-16.07c0-5.626,3.648-7.73,7.604-7.73c1.702,0,2.91,0.334,3.999,0.963
			c-1.017,2.169-1.564,4.664-1.564,7.387c0,9.768,6.242,16.256,16.753,16.256c4.636,0,9.891-1.609,13.102-4.946l-4.82-4.761
			c-1.732,1.791-5.379,2.844-8.157,2.844c-5.323,0-8.594-2.721-9.091-6.488h22.184c1.111,8.355,7.407,13.226,15.524,13.226
			c3.709,0,7.48-1.233,9.829-4.88l0.498,4.201h7.044V0.804H136.511z M89.1,25.224c1.116-3.957,4.453-5.933,8.529-5.933
			c4.33,0,7.42,1.976,7.913,5.933H89.1z M127.176,37.712c-4.821,0-8.655-3.648-8.655-8.961c0-5.501,3.834-8.904,8.655-8.904
			c4.759,0,8.842,3.583,8.842,8.904C136.018,34.249,131.935,37.712,127.176,37.712z"/>
	</g>
</g>
</svg>
